<svg viewBox="0 0 16 16" fill="none" xmlns="http://www.w3.org/2000/svg" id="Envelope--Streamline-Unicons" height="16" width="16">
  <desc>
    Envelope Streamline Icon: https://streamlinehq.com
  </desc>
  <path d="M13.488 1.728H2.5119999999999996c-0.6237999999999999 0 -1.222 0.24779999999999996 -1.6631333333333331 0.6888666666666667C0.4078 2.8579999999999997 0.15999999999999998 3.4562 0.15999999999999998 4.08v7.84c0 0.6237333333333333 0.24779999999999996 1.222 0.6888666666666667 1.6631333333333331 0.44113333333333327 0.4410666666666666 1.0393333333333332 0.6888666666666667 1.6631333333333331 0.6888666666666667h10.975999999999999c0.6237333333333333 0 1.222 -0.24779999999999996 1.6631333333333331 -0.6888666666666667 0.4410666666666666 -0.44113333333333327 0.6888666666666667 -1.0393999999999999 0.6888666666666667 -1.6631333333333331V4.08c0 -0.6237999999999999 -0.24779999999999996 -1.222 -0.6888666666666667 -1.6631333333333331 -0.44113333333333327 -0.4410666666666666 -1.0393999999999999 -0.6888666666666667 -1.6631333333333331 -0.6888666666666667Zm-0.3214666666666667 1.5679999999999998 -4.609866666666666 4.609933333333333c-0.07293333333333332 0.07346666666666667 -0.15966666666666665 0.13179999999999997 -0.2551333333333333 0.1716 -0.09559999999999999 0.03986666666666666 -0.19806666666666664 0.06026666666666666 -0.3015333333333333 0.06026666666666666s-0.20593333333333333 -0.020399999999999998 -0.3015333333333333 -0.06026666666666666c-0.09546666666666666 -0.0398 -0.18219999999999997 -0.09813333333333332 -0.2551333333333333 -0.1716L2.833466666666667 3.296h10.333066666666666ZM14.272 11.919999999999998c0 0.20793333333333333 -0.08259999999999999 0.4074 -0.22959999999999997 0.5544s-0.3464666666666667 0.22959999999999997 -0.5544 0.22959999999999997H2.5119999999999996c-0.20793333333333333 0 -0.4073333333333333 -0.08259999999999999 -0.5544 -0.22959999999999997 -0.147 -0.147 -0.22959999999999997 -0.3464666666666667 -0.22959999999999997 -0.5544V4.401466666666666l4.609933333333333 4.609866666666666c0.44099999999999995 0.4404666666666666 1.0388 0.6879333333333333 1.6620666666666666 0.6879333333333333 0.6232666666666666 0 1.2210666666666665 -0.24746666666666664 1.6620666666666666 -0.6879333333333333l4.609933333333333 -4.609866666666666V11.919999999999998Z" fill="#000000" stroke-width="0.6667"></path>
</svg>